<svg fill="none" height="32" viewBox="0 0 32 32" width="32" xmlns="http://www.w3.org/2000/svg" xmlns:xlink="http://www.w3.org/1999/xlink"><linearGradient id="a" gradientUnits="userSpaceOnUse" x1="29.024" x2="5.216" y1="7.264" y2="27.296"><stop offset="0" stop-color="#b6509e"/><stop offset="1" stop-color="#2ebac6"/></linearGradient><path d="m16 32c8.8366 0 16-7.1634 16-16 0-8.83656-7.1634-16-16-16-8.83656 0-16 7.16344-16 16 0 8.8366 7.16344 16 16 16z" fill="url(#a)"/><path d="m23.924 22.9145-6.1142-14.77666c-.3455-.76358-.8563-1.13784-1.5323-1.13784h-.5408c-.676 0-1.1868.37426-1.5323 1.13784l-2.6589 6.43786h-2.01318c-.28986.0011-.56758.1165-.7729.3211-.20531.2046-.32164.4819-.32375.7718v.0149c.00211.2899.11844.5672.32375.7718.20532.2047.48304.3201.7729.3212h1.08138l-2.5386 6.138c-.04801.1347-.07339.2764-.0751.4193 0 .3444.10516.6139.30046.8235.19531.2096.46568.3143.81124.3143.22687-.0031.44723-.0763.63079-.2097.19531-.1347.33051-.3294.43571-.5539l2.7942-6.9318h1.9379c.2899-.0011.5676-.1165.7729-.3211s.3217-.4819.3238-.7718v-.0299c-.0021-.2899-.1185-.5672-.3238-.7718-.2053-.2047-.483-.3201-.7729-.3212h-1.0364l2.1332-5.31472 5.8138 14.46232c.1051.2246.2403.4193.4357.5539.1836.1334.404.2067.6309.2097.3456 0 .616-.1048.8113-.3144.1953-.2097.3004-.4791.3004-.8234.0057-.1436-.02-.2866-.0752-.4193z" fill="#fff"/></svg>